<svg id="Icons" xmlns="http://www.w3.org/2000/svg" viewBox="0 0 512 512"><defs><style>.cls-1{fill:#14a36d;}.cls-2{fill:#15be79;}.cls-3{fill:#6b250c;}.cls-4{fill:#7a2b13;}.cls-5{fill:#8c4735;}.cls-6{fill:#b76049;}.cls-7{fill:#a05740;}.cls-8{fill:#fbcb74;}.cls-9{fill:#faefdc;}</style></defs><title>019-beer-export</title><circle class="cls-1" cx="256" cy="256" r="255.98"/><path class="cls-2" d="M0,255.76A255.63,255.63,0,0,1,103.44,50.44c113.54-84.25,273.87-60.52,358.12,53a254.76,254.76,0,0,1,49.93,136,76.89,76.89,0,0,0-14.24,6.88c-23.84,14.74-42,41.9-69.91,44.44-19.15,1.75-37.29-9.24-51.1-22.62s-24.87-29.51-39.4-42.12a112.53,112.53,0,0,0-157.7,10c-14.17,15.89-26.53,37.44-47.68,40-28.75,3.44-51.22-31.63-80-28.95-9.3.87-17.72,5.66-26.73,8A54.5,54.5,0,0,1,0,255.76Z"/><path class="cls-3" d="M123.37,167v58.33a4,4,0,0,0,4,4h15.87a4,4,0,0,0,4-4h0c0-7.56,6.93-13.68,15.48-13.68H201.8c8.55,0,15.48,6.12,15.48,13.68h0a4,4,0,0,0,4,4h15.87a4,4,0,0,0,4-4V167Z"/><path class="cls-4" d="M123.37,167v58.33a4,4,0,0,0,4,4H136a4,4,0,0,0,4-4v-1.43a18.64,18.64,0,0,1,18.64-18.65H205.8a18.65,18.65,0,0,1,18.65,18.65v1.43a4,4,0,0,0,4,4h8.71a4,4,0,0,0,4-4V167Z"/><ellipse class="cls-5" cx="233.8" cy="193.17" rx="4.96" ry="9.79"/><ellipse class="cls-5" cx="233.8" cy="211.63" rx="3.12" ry="6.52"/><circle class="cls-6" cx="182.23" cy="128.84" r="70.14"/><circle class="cls-3" cx="182.23" cy="128.84" r="58.85"/><path class="cls-4" d="M149.24,80.1v97.49a58.84,58.84,0,0,1-25.46-41.85,58.12,58.12,0,0,1-.41-6.9A58.79,58.79,0,0,1,149.24,80.1Z"/><path class="cls-4" d="M241.08,128.84a60.32,60.32,0,0,1-.4,6.9,58.84,58.84,0,0,1-25.46,41.85V80.1A58.81,58.81,0,0,1,241.08,128.84Z"/><path class="cls-4" d="M179.85,70V187.65A58.43,58.43,0,0,1,154,180.49V77.2A58.43,58.43,0,0,1,179.85,70Z"/><path class="cls-4" d="M210.47,77.2V180.49a58.51,58.51,0,0,1-25.87,7.16V70A58.51,58.51,0,0,1,210.47,77.2Z"/><path class="cls-5" d="M149.24,93.93v83.66a58.84,58.84,0,0,1-25.46-41.85A58.82,58.82,0,0,1,149.24,93.93Z"/><path class="cls-5" d="M154,91a58.43,58.43,0,0,1,25.86-7.16V187.65A58.43,58.43,0,0,1,154,180.49Z"/><path class="cls-5" d="M184.6,83.87A58.51,58.51,0,0,1,210.47,91v89.46a58.51,58.51,0,0,1-25.87,7.16Z"/><path class="cls-5" d="M240.68,135.74a58.84,58.84,0,0,1-25.46,41.85V93.93A58.88,58.88,0,0,1,240.68,135.74Z"/><ellipse class="cls-7" cx="171.5" cy="102.38" rx="6.11" ry="13.55"/><ellipse class="cls-7" cx="171.5" cy="127.93" rx="3.84" ry="9.03"/><ellipse class="cls-7" cx="202.11" cy="102.38" rx="6.11" ry="13.55"/><ellipse class="cls-7" cx="202.11" cy="127.93" rx="3.84" ry="9.03"/><ellipse class="cls-7" cx="231.85" cy="127.93" rx="3.84" ry="9.03"/><ellipse class="cls-7" cx="140.01" cy="127.93" rx="3.84" ry="9.03"/><path class="cls-8" d="M208.22,159.44a8,8,0,1,1-14.08-5.27h0a8,8,0,0,1,12.09,0h0A7.94,7.94,0,0,1,208.22,159.44Z"/><path class="cls-9" d="M207.07,157.44a6.88,6.88,0,1,1-12.93-3.27h0a8,8,0,0,1,12.09,0h0A6.79,6.79,0,0,1,207.07,157.44Z"/><path class="cls-3" d="M270.92,167v58.33a4,4,0,0,0,4,4h15.87a4,4,0,0,0,4-4h0c0-7.56,6.93-13.68,15.48-13.68h39.15c8.55,0,15.48,6.12,15.48,13.68h0a4,4,0,0,0,4,4h15.87a4,4,0,0,0,4-4V167Z"/><path class="cls-4" d="M270.92,167v58.33a4,4,0,0,0,4,4h8.71a4,4,0,0,0,4-4v-1.43a18.65,18.65,0,0,1,18.65-18.65h47.15A18.64,18.64,0,0,1,372,223.92v1.43a4,4,0,0,0,4,4h8.7a4,4,0,0,0,4-4V167Z"/><ellipse class="cls-5" cx="381.34" cy="193.17" rx="4.96" ry="9.79"/><ellipse class="cls-5" cx="381.34" cy="211.63" rx="3.12" ry="6.52"/><circle class="cls-6" cx="329.77" cy="128.84" r="70.14"/><circle class="cls-3" cx="329.77" cy="128.84" r="58.85"/><path class="cls-4" d="M296.78,80.1v97.49a58.84,58.84,0,0,1-25.46-41.85,60.32,60.32,0,0,1-.4-6.9A58.81,58.81,0,0,1,296.78,80.1Z"/><path class="cls-4" d="M388.63,128.84a58.12,58.12,0,0,1-.41,6.9,58.84,58.84,0,0,1-25.46,41.85V80.1A58.79,58.79,0,0,1,388.63,128.84Z"/><path class="cls-4" d="M327.4,70V187.65a58.51,58.51,0,0,1-25.87-7.16V77.2A58.51,58.51,0,0,1,327.4,70Z"/><path class="cls-4" d="M358,77.2V180.49a58.43,58.43,0,0,1-25.86,7.16V70A58.43,58.43,0,0,1,358,77.2Z"/><path class="cls-5" d="M296.78,93.93v83.66a58.84,58.84,0,0,1-25.46-41.85A58.88,58.88,0,0,1,296.78,93.93Z"/><path class="cls-5" d="M301.53,91a58.51,58.51,0,0,1,25.87-7.16V187.65a58.51,58.51,0,0,1-25.87-7.16Z"/><path class="cls-5" d="M332.15,83.87A58.43,58.43,0,0,1,358,91v89.46a58.43,58.43,0,0,1-25.86,7.16Z"/><path class="cls-5" d="M388.22,135.74a58.84,58.84,0,0,1-25.46,41.85V93.93A58.82,58.82,0,0,1,388.22,135.74Z"/><ellipse class="cls-7" cx="319.04" cy="102.38" rx="6.11" ry="13.55"/><ellipse class="cls-7" cx="319.04" cy="127.93" rx="3.84" ry="9.03"/><ellipse class="cls-7" cx="349.66" cy="102.38" rx="6.11" ry="13.55"/><ellipse class="cls-7" cx="349.66" cy="127.93" rx="3.84" ry="9.03"/><ellipse class="cls-7" cx="379.4" cy="127.93" rx="3.84" ry="9.03"/><ellipse class="cls-7" cx="287.55" cy="127.93" rx="3.84" ry="9.03"/><path class="cls-8" d="M355.77,159.44a8,8,0,1,1-14.08-5.27h0a8,8,0,0,1,12.1,0h0A8,8,0,0,1,355.77,159.44Z"/><path class="cls-9" d="M354.62,157.44a6.88,6.88,0,0,1-13.76,0,6.79,6.79,0,0,1,.83-3.27h0a8,8,0,0,1,12.1,0h0A6.79,6.79,0,0,1,354.62,157.44Z"/><path class="cls-3" d="M49.6,323.85v58.34a4,4,0,0,0,4,4H69.44a4,4,0,0,0,4-4h0c0-7.56,6.93-13.69,15.48-13.69H128c8.55,0,15.48,6.13,15.48,13.69h0a4,4,0,0,0,4,4h15.87a4,4,0,0,0,4-4V323.85Z"/><path class="cls-4" d="M49.6,323.85v58.34a4,4,0,0,0,4,4h8.71a4,4,0,0,0,4-4v-1.44a18.65,18.65,0,0,1,18.65-18.64H132a18.64,18.64,0,0,1,18.64,18.64v1.44a4,4,0,0,0,4,4h8.7a4,4,0,0,0,4-4V323.85Z"/><ellipse class="cls-5" cx="160.02" cy="350.01" rx="4.96" ry="9.79"/><ellipse class="cls-5" cx="160.02" cy="368.47" rx="3.12" ry="6.52"/><circle class="cls-6" cx="108.45" cy="285.68" r="70.14"/><circle class="cls-3" cx="108.45" cy="285.68" r="58.85"/><path class="cls-4" d="M75.46,236.93v97.49A58.78,58.78,0,0,1,50,292.57a58.07,58.07,0,0,1-.41-6.89A58.82,58.82,0,0,1,75.46,236.93Z"/><path class="cls-4" d="M167.31,285.68a58.07,58.07,0,0,1-.41,6.89,58.82,58.82,0,0,1-25.46,41.85V236.93A58.81,58.81,0,0,1,167.31,285.68Z"/><path class="cls-4" d="M106.08,226.87V344.48a58.51,58.51,0,0,1-25.87-7.16V234A58.51,58.51,0,0,1,106.08,226.87Z"/><path class="cls-4" d="M136.69,234V337.32a58.43,58.43,0,0,1-25.86,7.16V226.87A58.43,58.43,0,0,1,136.69,234Z"/><path class="cls-5" d="M75.46,250.77v83.65A58.78,58.78,0,0,1,50,292.57,58.82,58.82,0,0,1,75.46,250.77Z"/><path class="cls-5" d="M80.21,247.87a58.51,58.51,0,0,1,25.87-7.16V344.48a58.51,58.51,0,0,1-25.87-7.16Z"/><path class="cls-5" d="M110.83,240.71a58.43,58.43,0,0,1,25.86,7.16v89.45a58.43,58.43,0,0,1-25.86,7.16Z"/><path class="cls-5" d="M166.9,292.57a58.82,58.82,0,0,1-25.46,41.85V250.77A58.8,58.8,0,0,1,166.9,292.57Z"/><ellipse class="cls-7" cx="97.72" cy="259.22" rx="6.11" ry="13.55"/><ellipse class="cls-7" cx="97.72" cy="284.76" rx="3.84" ry="9.03"/><ellipse class="cls-7" cx="128.34" cy="259.22" rx="6.11" ry="13.55"/><ellipse class="cls-7" cx="128.34" cy="284.76" rx="3.84" ry="9.03"/><ellipse class="cls-7" cx="158.08" cy="284.76" rx="3.84" ry="9.03"/><ellipse class="cls-7" cx="66.23" cy="284.76" rx="3.84" ry="9.03"/><path class="cls-8" d="M134.45,316.27A8,8,0,1,1,120.37,311h0a8,8,0,0,1,12.09,0h0A8,8,0,0,1,134.45,316.27Z"/><path class="cls-9" d="M133.3,314.27A6.88,6.88,0,1,1,120.37,311h0a8,8,0,0,1,12.09,0h0A6.81,6.81,0,0,1,133.3,314.27Z"/><path class="cls-3" d="M197.15,323.85v58.34a4,4,0,0,0,4,4H217a4,4,0,0,0,4-4h0c0-7.56,6.93-13.69,15.47-13.69h39.16c8.54,0,15.47,6.13,15.47,13.69h0a4,4,0,0,0,4,4h15.87a4,4,0,0,0,4-4V323.85Z"/><path class="cls-4" d="M197.15,323.85v58.34a4,4,0,0,0,4,4h8.71a4,4,0,0,0,4-4v-1.44a18.65,18.65,0,0,1,18.64-18.64h47.16a18.65,18.65,0,0,1,18.64,18.64v1.44a4,4,0,0,0,4,4h8.71a4,4,0,0,0,4-4V323.85Z"/><ellipse class="cls-5" cx="307.57" cy="350.01" rx="4.96" ry="9.79"/><ellipse class="cls-5" cx="307.57" cy="368.47" rx="3.12" ry="6.52"/><circle class="cls-6" cx="256" cy="285.68" r="70.14"/><circle class="cls-3" cx="256" cy="285.68" r="58.85"/><path class="cls-4" d="M223,236.93v97.49a58.82,58.82,0,0,1-25.46-41.85,58.08,58.08,0,0,1-.4-6.89A58.8,58.8,0,0,1,223,236.93Z"/><path class="cls-4" d="M314.85,285.68a58.08,58.08,0,0,1-.4,6.89A58.82,58.82,0,0,1,289,334.42V236.93A58.8,58.8,0,0,1,314.85,285.68Z"/><path class="cls-4" d="M253.62,226.87V344.48a58.47,58.47,0,0,1-25.86-7.16V234A58.47,58.47,0,0,1,253.62,226.87Z"/><path class="cls-4" d="M284.24,234V337.32a58.47,58.47,0,0,1-25.86,7.16V226.87A58.47,58.47,0,0,1,284.24,234Z"/><path class="cls-5" d="M223,250.77v83.65a58.82,58.82,0,0,1-25.46-41.85A58.83,58.83,0,0,1,223,250.77Z"/><path class="cls-5" d="M227.76,247.87a58.47,58.47,0,0,1,25.86-7.16V344.48a58.47,58.47,0,0,1-25.86-7.16Z"/><path class="cls-5" d="M258.38,240.71a58.47,58.47,0,0,1,25.86,7.16v89.45a58.47,58.47,0,0,1-25.86,7.16Z"/><path class="cls-5" d="M314.45,292.57A58.82,58.82,0,0,1,289,334.42V250.77A58.83,58.83,0,0,1,314.45,292.57Z"/><ellipse class="cls-7" cx="245.27" cy="259.22" rx="6.11" ry="13.55"/><ellipse class="cls-7" cx="245.27" cy="284.76" rx="3.84" ry="9.03"/><ellipse class="cls-7" cx="275.88" cy="259.22" rx="6.11" ry="13.55"/><ellipse class="cls-7" cx="275.88" cy="284.76" rx="3.84" ry="9.03"/><ellipse class="cls-7" cx="305.62" cy="284.76" rx="3.84" ry="9.03"/><ellipse class="cls-7" cx="213.78" cy="284.76" rx="3.84" ry="9.03"/><path class="cls-8" d="M282,316.27A8,8,0,1,1,267.92,311h0A8,8,0,0,1,280,311h0A8,8,0,0,1,282,316.27Z"/><path class="cls-9" d="M280.84,314.27A6.88,6.88,0,1,1,267.92,311h0A8,8,0,0,1,280,311h0A6.81,6.81,0,0,1,280.84,314.27Z"/><path class="cls-3" d="M344.69,323.85v58.34a4,4,0,0,0,4,4h15.87a4,4,0,0,0,4-4h0c0-7.56,6.93-13.69,15.48-13.69h39.15c8.55,0,15.48,6.13,15.48,13.69h0a4,4,0,0,0,4,4h15.88a4,4,0,0,0,4-4V323.85Z"/><path class="cls-4" d="M344.69,323.85v58.34a4,4,0,0,0,4,4h8.7a4,4,0,0,0,4-4v-1.44A18.64,18.64,0,0,1,380,362.11h47.15a18.65,18.65,0,0,1,18.65,18.64v1.44a4,4,0,0,0,4,4h8.71a4,4,0,0,0,4-4V323.85Z"/><ellipse class="cls-5" cx="455.12" cy="350.01" rx="4.96" ry="9.79"/><ellipse class="cls-5" cx="455.12" cy="368.47" rx="3.12" ry="6.52"/><circle class="cls-6" cx="403.55" cy="285.68" r="70.14"/><circle class="cls-3" cx="403.55" cy="285.68" r="58.85"/><path class="cls-4" d="M370.56,236.93v97.49a58.82,58.82,0,0,1-25.46-41.85,58.07,58.07,0,0,1-.41-6.89A58.81,58.81,0,0,1,370.56,236.93Z"/><path class="cls-4" d="M462.4,285.68a58.07,58.07,0,0,1-.41,6.89,58.78,58.78,0,0,1-25.45,41.85V236.93A58.82,58.82,0,0,1,462.4,285.68Z"/><path class="cls-4" d="M401.17,226.87V344.48a58.43,58.43,0,0,1-25.86-7.16V234A58.43,58.43,0,0,1,401.17,226.87Z"/><path class="cls-4" d="M431.79,234V337.32a58.51,58.51,0,0,1-25.87,7.16V226.87A58.51,58.51,0,0,1,431.79,234Z"/><path class="cls-5" d="M370.56,250.77v83.65a58.82,58.82,0,0,1-25.46-41.85A58.8,58.8,0,0,1,370.56,250.77Z"/><path class="cls-5" d="M375.31,247.87a58.43,58.43,0,0,1,25.86-7.16V344.48a58.43,58.43,0,0,1-25.86-7.16Z"/><path class="cls-5" d="M405.92,240.71a58.51,58.51,0,0,1,25.87,7.16v89.45a58.51,58.51,0,0,1-25.87,7.16Z"/><path class="cls-5" d="M462,292.57a58.78,58.78,0,0,1-25.45,41.85V250.77A58.82,58.82,0,0,1,462,292.57Z"/><ellipse class="cls-7" cx="392.81" cy="259.22" rx="6.11" ry="13.55"/><ellipse class="cls-7" cx="392.81" cy="284.76" rx="3.84" ry="9.03"/><ellipse class="cls-7" cx="423.43" cy="259.22" rx="6.11" ry="13.55"/><ellipse class="cls-7" cx="423.43" cy="284.76" rx="3.84" ry="9.03"/><ellipse class="cls-7" cx="453.17" cy="284.76" rx="3.84" ry="9.03"/><ellipse class="cls-7" cx="361.33" cy="284.76" rx="3.84" ry="9.03"/><path class="cls-8" d="M429.54,316.27A8,8,0,1,1,415.46,311h0a8,8,0,0,1,12.09,0h0A8,8,0,0,1,429.54,316.27Z"/><path class="cls-9" d="M428.39,314.27A6.88,6.88,0,1,1,415.46,311h0a8,8,0,0,1,12.09,0h0A6.81,6.81,0,0,1,428.39,314.27Z"/></svg>